<svg width="138" height="49" viewBox="0 0 138 49" fill="none" xmlns="http://www.w3.org/2000/svg">
<path d="M34.7085 6.125C37.4159 6.125 40.0124 7.20052 41.9269 9.11495C43.8413 11.0294 44.9168 13.6259 44.9168 16.3333V32.6667C44.9168 35.3741 43.8413 37.9706 41.9269 39.885C40.0124 41.7995 37.4159 42.875 34.7085 42.875H6.12516C5.58368 42.875 5.06437 42.6599 4.68149 42.277C4.2986 41.8941 4.0835 41.3748 4.0835 40.8333V16.3333C4.0835 13.6259 5.15901 11.0294 7.07345 9.11495C8.98788 7.20052 11.5844 6.125 14.2918 6.125H34.7085ZM34.7085 10.2083H14.2918C12.6674 10.2083 11.1095 10.8536 9.9608 12.0023C8.81214 13.151 8.16683 14.7089 8.16683 16.3333V38.7917H34.7085C36.3329 38.7917 37.8909 38.1464 39.0395 36.9977C40.1882 35.849 40.8335 34.2911 40.8335 32.6667V16.3333C40.8335 14.7089 40.1882 13.151 39.0395 12.0023C37.8909 10.8536 36.3329 10.2083 34.7085 10.2083ZM18.3752 20.4167C18.9166 20.4167 19.436 20.6318 19.8188 21.0147C20.2017 21.3975 20.4168 21.9169 20.4168 22.4583V26.5417C20.4168 27.0832 20.2017 27.6025 19.8188 27.9853C19.436 28.3682 18.9166 28.5833 18.3752 28.5833C17.8337 28.5833 17.3144 28.3682 16.9315 27.9853C16.5486 27.6025 16.3335 27.0832 16.3335 26.5417V22.4583C16.3335 21.9169 16.5486 21.3975 16.9315 21.0147C17.3144 20.6318 17.8337 20.4167 18.3752 20.4167ZM30.6252 20.4167C31.1252 20.4167 31.6079 20.6003 31.9816 20.9326C32.3553 21.2649 32.594 21.7228 32.6525 22.2195L32.6668 22.4583V26.5417C32.6663 27.062 32.467 27.5626 32.1098 27.941C31.7525 28.3194 31.2643 28.5471 30.7448 28.5776C30.2253 28.6081 29.7138 28.439 29.3148 28.105C28.9157 27.771 28.6592 27.2973 28.5978 26.7805L28.5835 26.5417V22.4583C28.5835 21.9169 28.7986 21.3975 29.1815 21.0147C29.5644 20.6318 30.0837 20.4167 30.6252 20.4167Z" fill="#1A20FC"/>
<path d="M72.517 22.9091H68.5114C68.483 22.5777 68.4072 22.277 68.2841 22.0071C68.1657 21.7372 68 21.5052 67.7869 21.3111C67.5786 21.1122 67.3253 20.9607 67.027 20.8565C66.7287 20.7476 66.3902 20.6932 66.0114 20.6932C65.3485 20.6932 64.7874 20.8542 64.3281 21.1761C63.8736 21.4981 63.5279 21.9598 63.2912 22.5611C63.0592 23.1624 62.9432 23.8845 62.9432 24.7273C62.9432 25.6174 63.0616 26.3632 63.2983 26.9645C63.5398 27.5611 63.8878 28.0109 64.3423 28.3139C64.7969 28.6122 65.3438 28.7614 65.983 28.7614C66.3475 28.7614 66.6742 28.7164 66.9631 28.6264C67.2519 28.5317 67.5028 28.3968 67.7159 28.2216C67.929 28.0464 68.1018 27.8357 68.2344 27.5895C68.3717 27.3385 68.464 27.0568 68.5114 26.7443L72.517 26.7727C72.4697 27.3883 72.2969 28.0156 71.9986 28.6548C71.7003 29.2893 71.2765 29.8764 70.7273 30.4162C70.1828 30.9512 69.508 31.3821 68.7031 31.7088C67.8982 32.0355 66.9631 32.1989 65.8977 32.1989C64.5625 32.1989 63.3646 31.9124 62.304 31.3395C61.2481 30.7666 60.4124 29.9238 59.7969 28.8111C59.1861 27.6984 58.8807 26.3371 58.8807 24.7273C58.8807 23.108 59.1932 21.7443 59.8182 20.6364C60.4432 19.5237 61.286 18.6832 62.3466 18.1151C63.4072 17.5421 64.5909 17.2557 65.8977 17.2557C66.8163 17.2557 67.6615 17.3812 68.4332 17.6321C69.205 17.883 69.8821 18.25 70.4645 18.733C71.0469 19.2112 71.5156 19.8007 71.8707 20.5014C72.2259 21.2022 72.4413 22.0047 72.517 22.9091ZM78.2859 25.8636V32H74.3654V17.4545H78.1438V23.1648H78.2575C78.5037 22.4687 78.9132 21.9266 79.4862 21.5384C80.0591 21.1454 80.748 20.9489 81.5529 20.9489C82.3247 20.9489 82.9947 21.1241 83.5629 21.4744C84.1358 21.8248 84.5785 22.3078 84.891 22.9233C85.2082 23.5388 85.3645 24.2443 85.3597 25.0398V32H81.4393V25.8636C81.444 25.3239 81.3091 24.9001 81.0344 24.5923C80.7646 24.2846 80.3787 24.1307 79.8768 24.1307C79.5595 24.1307 79.2802 24.2017 79.0387 24.3438C78.802 24.4811 78.6173 24.6799 78.4847 24.9403C78.3569 25.196 78.2906 25.5038 78.2859 25.8636ZM90.3349 32.1705C89.6388 32.1705 89.0233 32.0568 88.4883 31.8295C87.958 31.5975 87.5413 31.2472 87.2383 30.7784C86.9353 30.3097 86.7837 29.7131 86.7837 28.9886C86.7837 28.392 86.8855 27.883 87.0891 27.4616C87.2927 27.0355 87.5768 26.6875 87.9414 26.4176C88.306 26.1477 88.7298 25.9418 89.2127 25.7997C89.7004 25.6577 90.226 25.5653 90.7894 25.5227C91.4002 25.4754 91.8903 25.4186 92.2596 25.3523C92.6336 25.2812 92.9035 25.1842 93.0692 25.0611C93.235 24.9332 93.3178 24.7652 93.3178 24.5568V24.5284C93.3178 24.2443 93.2089 24.0265 92.9911 23.875C92.7733 23.7235 92.494 23.6477 92.1531 23.6477C91.779 23.6477 91.4736 23.7306 91.2369 23.8963C91.0049 24.0573 90.8652 24.3059 90.8178 24.642H87.2099C87.2572 23.9792 87.4679 23.3684 87.842 22.8097C88.2208 22.2462 88.7724 21.7964 89.4968 21.4602C90.2212 21.1193 91.1256 20.9489 92.2099 20.9489C92.9911 20.9489 93.6919 21.0412 94.3121 21.2259C94.9324 21.4058 95.4603 21.6591 95.896 21.9858C96.3316 22.3078 96.663 22.6866 96.8903 23.1222C97.1223 23.553 97.2383 24.0218 97.2383 24.5284V32H93.5735V30.4659H93.4883C93.2705 30.8731 93.0053 31.2022 92.6928 31.4531C92.3851 31.7041 92.0323 31.8864 91.6346 32C91.2416 32.1136 90.8084 32.1705 90.3349 32.1705ZM91.6133 29.6989C91.9116 29.6989 92.1909 29.6373 92.4513 29.5142C92.7165 29.3911 92.9319 29.2135 93.0977 28.9815C93.2634 28.7495 93.3462 28.4678 93.3462 28.1364V27.2273C93.2421 27.2699 93.1308 27.3101 93.0124 27.348C92.8988 27.3859 92.7757 27.4214 92.6431 27.4545C92.5153 27.4877 92.378 27.5185 92.2312 27.5469C92.0891 27.5753 91.94 27.6013 91.7837 27.625C91.4807 27.6723 91.2321 27.7505 91.038 27.8594C90.8486 27.9635 90.7066 28.0938 90.6119 28.25C90.5219 28.4015 90.4769 28.572 90.4769 28.7614C90.4769 29.0644 90.5835 29.2964 90.7965 29.4574C91.0096 29.6184 91.2818 29.6989 91.6133 29.6989ZM105.617 21.0909V23.9318H98.4297V21.0909H105.617ZM99.8217 18.4773H103.742V28.4915C103.742 28.643 103.768 28.7708 103.82 28.875C103.872 28.9744 103.953 29.0502 104.062 29.1023C104.171 29.1496 104.31 29.1733 104.481 29.1733C104.599 29.1733 104.737 29.1591 104.893 29.1307C105.054 29.1023 105.172 29.0786 105.248 29.0597L105.816 31.8153C105.641 31.8674 105.39 31.9313 105.063 32.0071C104.741 32.0829 104.358 32.1326 103.913 32.1562C103.013 32.2036 102.258 32.1113 101.647 31.8793C101.036 31.6425 100.577 31.2708 100.269 30.7642C99.9614 30.2576 99.8123 29.6231 99.8217 28.8608V18.4773Z" fill="#373737"/>
<path d="M107.395 17.4545H112.309L115.69 25.6932H115.86L119.241 17.4545H124.156V32H120.292V23.5909H120.179L116.94 31.8864H114.61L111.372 23.5341H111.258V32H107.395V17.4545ZM131.311 32.1989C130.147 32.1989 129.143 31.9763 128.3 31.5312C127.462 31.0814 126.816 30.4375 126.361 29.5994C125.911 28.7566 125.686 27.7481 125.686 26.5739C125.686 25.447 125.914 24.4621 126.368 23.6193C126.823 22.7765 127.464 22.1207 128.293 21.652C129.122 21.1832 130.099 20.9489 131.226 20.9489C132.05 20.9489 132.796 21.0767 133.463 21.3324C134.131 21.5881 134.702 21.9598 135.175 22.4474C135.649 22.9304 136.013 23.5175 136.269 24.2088C136.525 24.9001 136.652 25.679 136.652 26.5455V27.4545H126.908V25.2955H133.044C133.04 24.983 132.959 24.7083 132.803 24.4716C132.651 24.2301 132.445 24.0431 132.185 23.9105C131.929 23.7732 131.638 23.7045 131.311 23.7045C130.994 23.7045 130.703 23.7732 130.438 23.9105C130.173 24.0431 129.96 24.2277 129.799 24.4645C129.642 24.7012 129.56 24.9782 129.55 25.2955V27.625C129.55 27.9754 129.623 28.2879 129.77 28.5625C129.917 28.8371 130.128 29.0526 130.402 29.2088C130.677 29.3651 131.008 29.4432 131.397 29.4432C131.667 29.4432 131.913 29.4053 132.135 29.3295C132.363 29.2538 132.557 29.1449 132.718 29.0028C132.879 28.8561 132.997 28.6809 133.073 28.4773H136.652C136.529 29.2348 136.238 29.893 135.779 30.4517C135.319 31.0057 134.711 31.4366 133.953 31.7443C133.201 32.0473 132.32 32.1989 131.311 32.1989Z" fill="#131BFF"/>
</svg>
