<svg width="49" height="49" viewBox=" 138 49" fill="none" xmlns="http://www.w3.org/2000/svg">
<path d="M34.7085 6.125C37.4159 6.125 40.0124 7.20052 41.9269 9.11495C43.8413 11.0294 44.9168 13.6259 44.9168 16.3333V32.6667C44.9168 35.3741 43.8413 37.9706 41.9269 39.885C40.0124 41.7995 37.4159 42.875 34.7085 42.875H6.12516C5.58368 42.875 5.06437 42.6599 4.68149 42.277C4.2986 41.8941 4.0835 41.3748 4.0835 40.8333V16.3333C4.0835 13.6259 5.15901 11.0294 7.07345 9.11495C8.98788 7.20052 11.5844 6.125 14.2918 6.125H34.7085ZM34.7085 10.2083H14.2918C12.6674 10.2083 11.1095 10.8536 9.9608 12.0023C8.81214 13.151 8.16683 14.7089 8.16683 16.3333V38.7917H34.7085C36.3329 38.7917 37.8909 38.1464 39.0395 36.9977C40.1882 35.849 40.8335 34.2911 40.8335 32.6667V16.3333C40.8335 14.7089 40.1882 13.151 39.0395 12.0023C37.8909 10.8536 36.3329 10.2083 34.7085 10.2083ZM18.3752 20.4167C18.9166 20.4167 19.436 20.6318 19.8188 21.0147C20.2017 21.3975 20.4168 21.9169 20.4168 22.4583V26.5417C20.4168 27.0832 20.2017 27.6025 19.8188 27.9853C19.436 28.3682 18.9166 28.5833 18.3752 28.5833C17.8337 28.5833 17.3144 28.3682 16.9315 27.9853C16.5486 27.6025 16.3335 27.0832 16.3335 26.5417V22.4583C16.3335 21.9169 16.5486 21.3975 16.9315 21.0147C17.3144 20.6318 17.8337 20.4167 18.3752 20.4167ZM30.6252 20.4167C31.1252 20.4167 31.6079 20.6003 31.9816 20.9326C32.3553 21.2649 32.594 21.7228 32.6525 22.2195L32.6668 22.4583V26.5417C32.6663 27.062 32.467 27.5626 32.1098 27.941C31.7525 28.3194 31.2643 28.5471 30.7448 28.5776C30.2253 28.6081 29.7138 28.439 29.3148 28.105C28.9157 27.771 28.6592 27.2973 28.5978 26.7805L28.5835 26.5417V22.4583C28.5835 21.9169 28.7986 21.3975 29.1815 21.0147C29.5644 20.6318 30.0837 20.4167 30.6252 20.4167Z" fill="#1A20FC"/>

</svg>

