<svg xmlns="http://www.w3.org/2000/svg" version="1.1" xmlns:xlink="http://www.w3.org/1999/xlink" xmlns:svgjs="http://svgjs.dev/svgjs" width="1500" height="318" viewBox="0 0 1500 318"><g transform="matrix(1,0,0,1,-0.9090909090909918,-0.4832346208957574)"><svg viewBox="0 0 396 84" data-background-color="#ffffff" preserveAspectRatio="xMidYMid meet" height="318" width="1500" xmlns="http://www.w3.org/2000/svg" xmlns:xlink="http://www.w3.org/1999/xlink"><g id="tight-bounds" transform="matrix(1,0,0,1,0.2400000000000091,0.12764688099133537)"><svg viewBox="0 0 395.52 83.7447062380173" height="83.7447062380173" width="395.52"><g><svg viewBox="0 0 552.0657008729036 116.89062485762146" height="83.7447062380173" width="395.52"><g transform="matrix(1,0,0,1,156.54570087290358,16.15492716917923)"><svg viewBox="0 0 395.52000000000004 84.580770519263" height="84.580770519263" width="395.52000000000004"><g id="textblocktransform"><svg viewBox="0 0 395.52000000000004 84.580770519263" height="84.580770519263" width="395.52000000000004" id="textblock"><g><svg viewBox="0 0 395.52000000000004 84.580770519263" height="84.580770519263" width="395.52000000000004"><g transform="matrix(1,0,0,1,0,0)"><svg width="395.52000000000004" viewBox="2.9 -37.7 179.09 38.300000000000004" height="84.580770519263" data-palette-color="url(#75527e6d-c5cc-4414-8f05-6e83ac0e1aea)"><g class="wordmark-text-0" data-fill-palette-color="primary" id="text-0"></g></svg></g></svg></g></svg></g></svg></g><g><svg viewBox="0 0 136.57821089179805 116.89062485762146" height="116.89062485762146" width="136.57821089179805"><g><svg xmlns="http://www.w3.org/2000/svg" xmlns:xlink="http://www.w3.org/1999/xlink" version="1.1" x="0" y="0" viewBox="0.499741564244382 0.18101534988859908 111.00058669431013 94.99998465011141" enable-background="new 0 0 111 95" xml:space="preserve" width="136.57821089179805" height="116.89062485762146" class="icon-icon-0" data-fill-palette-color="accent" id="icon-0"></svg></g></svg></g></svg></g><defs></defs><mask id="80e650be-a22a-407a-b3fe-1009a1fb5ea6"><g id="SvgjsG2140"><svg viewBox="0 0 395.52 83.7447062380173" height="83.7447062380173" width="395.52"><g><svg viewBox="0 0 552.0657008729036 116.89062485762146" height="83.7447062380173" width="395.52"><g transform="matrix(1,0,0,1,156.54570087290358,16.15492716917923)"><svg viewBox="0 0 395.52000000000004 84.580770519263" height="84.580770519263" width="395.52000000000004"><g id="SvgjsG2139"><svg viewBox="0 0 395.52000000000004 84.580770519263" height="84.580770519263" width="395.52000000000004" id="SvgjsSvg2138"><g><svg viewBox="0 0 395.52000000000004 84.580770519263" height="84.580770519263" width="395.52000000000004"><g transform="matrix(1,0,0,1,0,0)"><svg width="395.52000000000004" viewBox="2.9 -37.7 179.09 38.300000000000004" height="84.580770519263" data-palette-color="url(#75527e6d-c5cc-4414-8f05-6e83ac0e1aea)"><g class="wordmark-text-0" data-fill-palette-color="primary" id="SvgjsG2137"><path d="M15.65 0.6Q11.75 0.6 8.88-1.1 6-2.8 4.45-5.88 2.9-8.95 2.9-12.95L2.9-12.95Q2.9-17 4.48-20.1 6.05-23.2 8.93-24.95 11.8-26.7 15.65-26.7L15.65-26.7Q20.6-26.7 23.6-24.45L23.6-24.45 23.6-19.5 23.4-19.5Q20.1-21.95 15.75-21.95L15.75-21.95Q12.25-21.95 10.4-19.5 8.55-17.05 8.55-12.9L8.55-12.9Q8.55-8.85 10.38-6.5 12.2-4.15 15.7-4.15L15.7-4.15Q20.05-4.15 23.7-7.05L23.7-7.05 23.9-7.05 23.9-2.05Q20.7 0.6 15.65 0.6L15.65 0.6ZM45.85-26.7Q49.65-26.7 51.8-24.4 53.95-22.1 53.95-18.15L53.95-18.15 53.95 0 48.55 0 48.55-16.15Q48.55-19.05 47.5-20.48 46.45-21.9 44.25-21.9L44.25-21.9Q42.3-21.9 40.72-21.13 39.15-20.35 37.45-18.7L37.45-18.7 37.45 0 32.05 0 32.05-37.7 37.45-37.7 37.45-23.1Q39.55-25 41.45-25.85 43.35-26.7 45.85-26.7L45.85-26.7ZM85.25 0L79.84 0 79.2-3.45Q75.45 0.6 70.2 0.6L70.2 0.6Q66.5 0.6 64.15-1.43 61.8-3.45 61.8-6.8L61.8-6.8Q61.8-11.15 65.2-13.38 68.59-15.6 74.34-15.6L74.34-15.6Q76.7-15.6 78.75-15.4L78.75-15.4 78.75-16.8Q78.75-19.3 77.37-20.65 76-22 73.5-22L73.5-22Q70.75-22 68.47-21.2 66.2-20.4 63.7-18.65L63.7-18.65 63.7-23.65Q66-25.3 68.47-26 70.95-26.7 74.05-26.7L74.05-26.7Q78.75-26.7 81.45-24.23 84.15-21.75 84.15-17.4L84.15-17.4 84.15-5.8 85.25 0ZM71.15-3.7Q73.3-3.7 75.12-4.63 76.95-5.55 78.75-7.35L78.75-7.35 78.75-11.6 74.05-11.6Q70.9-11.6 69.15-10.6 67.4-9.6 67.4-7.2L67.4-7.2Q67.4-5.55 68.4-4.63 69.4-3.7 71.15-3.7L71.15-3.7ZM99.14-35.4L99.14-26.1 105.79-26.1 105.79-21.8 99.14-21.8 99.14-7.9Q99.14-6.05 99.92-5 100.69-3.95 102.24-3.95L102.24-3.95Q103.84-3.95 105.84-4.9L105.84-4.9 105.84-0.3Q103.74 0.6 101.09 0.6L101.09 0.6Q97.54 0.6 95.64-1.55 93.74-3.7 93.74-7.65L93.74-7.65 93.74-21.8 89.29-21.8 89.29-26.1 93.74-26.1 93.74-33.1 99.14-35.4ZM142.09-26.7Q145.79-26.7 147.87-24.4 149.94-22.1 149.94-18.15L149.94-18.15 149.94 0 144.54 0 144.54-16.15Q144.54-19.05 143.56-20.48 142.59-21.9 140.44-21.9L140.44-21.9Q138.64-21.9 137.22-21.13 135.79-20.35 134.19-18.75L134.19-18.75 134.19-18.15 134.19 0 128.79 0 128.79-16.15Q128.79-19.05 127.82-20.48 126.84-21.9 124.69-21.9L124.69-21.9Q122.89-21.9 121.47-21.13 120.04-20.35 118.44-18.75L118.44-18.75 118.44 0 113.04 0 113.04-20.3 111.94-26.1 117.09-26.1 117.89-22.6Q120.04-24.8 121.92-25.75 123.79-26.7 126.34-26.7L126.34-26.7Q128.89-26.7 130.72-25.58 132.54-24.45 133.39-22.4L133.39-22.4Q135.64-24.7 137.56-25.7 139.49-26.7 142.09-26.7L142.09-26.7ZM181.99-13.05L181.99-11.35 163.64-11.35Q164.04-7.9 166.06-5.93 168.09-3.95 171.54-3.95L171.54-3.95Q173.79-3.95 176.14-4.83 178.49-5.7 180.69-7.35L180.69-7.35 180.89-7.35 180.89-2.5Q176.74 0.6 171.49 0.6L171.49 0.6Q167.44 0.6 164.44-1.1 161.44-2.8 159.84-5.93 158.24-9.05 158.24-13.15L158.24-13.15Q158.24-17.1 159.71-20.18 161.19-23.25 163.94-24.98 166.69-26.7 170.34-26.7L170.34-26.7Q173.94-26.7 176.56-24.98 179.19-23.25 180.59-20.15 181.99-17.05 181.99-13.05L181.99-13.05ZM170.34-22.3Q167.59-22.3 165.84-20.38 164.09-18.45 163.69-15.25L163.69-15.25 176.44-15.25Q176.04-18.55 174.51-20.43 172.99-22.3 170.34-22.3L170.34-22.3Z" fill="white"></path></g></svg></g></svg></g></svg></g></svg></g><g><svg viewBox="0 0 136.57821089179805 116.89062485762146" height="116.89062485762146" width="136.57821089179805"><g><svg xmlns="http://www.w3.org/2000/svg" xmlns:xlink="http://www.w3.org/1999/xlink" version="1.1" x="0" y="0" viewBox="0.499741564244382 0.18101534988859908 111.00058669431013 94.99998465011141" enable-background="new 0 0 111 95" xml:space="preserve" width="136.57821089179805" height="116.89062485762146" class="icon-icon-0" data-fill-palette-color="accent" id="SvgjsSvg2136"><g fill="black"><g fill="black"><path fill="black" d="M104.343 59.979h-0.009c4.685-6.157 7.313-13.35 7.16-20.989C111.063 17.007 87.805-0.362 59.553 0.194 31.301 0.749 8.751 19.021 9.183 40.999c0.008 0.403 0.023 0.804 0.048 1.204l1.382-0.889c-0.006-0.122 7.458-3.969 7.458-4.091 0-15.986 23.184-31.354 41.478-31.354 16.493 0 44.731 9.461 44.731 33.198-0.001 7.173-4.12 14.362-8.574 20.141-3.728 5.777 0.721 18.79 0.721 18.79l-14.634-7.79c-3.827 1.192-9.75 1.75-11.375 2.209-1.959 4.583-5.001 7.155-5.001 7.155 5.152-0.36 9.128-1.237 13.731-2.69l25.925 11.143C105.072 88.024 96.293 70.293 104.343 59.979zM35.457 36.076C16.445 35.702 0.795 47.391 0.504 62.185c-0.103 5.14 1.667 9.98 4.817 14.123H5.316c5.416 6.94-0.491 18.873-0.491 18.873l17.446-7.498c3.76 1.187 7.846 1.876 12.127 1.961 19.012 0.374 34.662-11.314 34.954-26.108C69.644 48.745 54.469 36.45 35.457 36.076z"></path></g></g></svg></g></svg></g></svg></g><defs><mask></mask></defs></svg><rect width="395.52" height="83.7447062380173" fill="black" stroke="none" visibility="hidden"></rect></g></mask><linearGradient x1="0" x2="1" y1="0.578" y2="0.595" id="75527e6d-c5cc-4414-8f05-6e83ac0e1aea"><stop stop-color="#6ee2f5" offset="0"></stop><stop stop-color="#6454f0" offset="1"></stop></linearGradient><rect width="395.52" height="83.7447062380173" fill="url(#75527e6d-c5cc-4414-8f05-6e83ac0e1aea)" mask="url(#80e650be-a22a-407a-b3fe-1009a1fb5ea6)" data-fill-palette-color="primary"></rect><mask id="c7ec819f-fd90-433c-844d-30e49214fddf"><g id="SvgjsG2161"><svg viewBox="0 0 395.52 83.7447062380173" height="83.7447062380173" width="395.52"><g><svg viewBox="0 0 552.0657008729036 116.89062485762146" height="83.7447062380173" width="395.52"><g transform="matrix(1,0,0,1,156.54570087290358,16.15492716917923)"><svg viewBox="0 0 395.52000000000004 84.580770519263" height="84.580770519263" width="395.52000000000004"><g id="SvgjsG2160"><svg viewBox="0 0 395.52000000000004 84.580770519263" height="84.580770519263" width="395.52000000000004" id="SvgjsSvg2159"><g><svg viewBox="0 0 395.52000000000004 84.580770519263" height="84.580770519263" width="395.52000000000004"><g transform="matrix(1,0,0,1,0,0)"><svg width="395.52000000000004" viewBox="2.9 -37.7 179.09 38.300000000000004" height="84.580770519263" data-palette-color="url(#75527e6d-c5cc-4414-8f05-6e83ac0e1aea)"><g class="wordmark-text-0" data-fill-palette-color="primary" id="SvgjsG2158"></g></svg></g></svg></g></svg></g></svg></g><g><svg viewBox="0 0 136.57821089179805 116.89062485762146" height="116.89062485762146" width="136.57821089179805"><g><svg xmlns="http://www.w3.org/2000/svg" xmlns:xlink="http://www.w3.org/1999/xlink" version="1.1" x="0" y="0" viewBox="0.499741564244382 0.18101534988859908 111.00058669431013 94.99998465011141" enable-background="new 0 0 111 95" xml:space="preserve" width="136.57821089179805" height="116.89062485762146" class="icon-icon-0" data-fill-palette-color="accent" id="SvgjsSvg2157"><g fill="white"><g fill="white"><path fill="white" d="M104.343 59.979h-0.009c4.685-6.157 7.313-13.35 7.16-20.989C111.063 17.007 87.805-0.362 59.553 0.194 31.301 0.749 8.751 19.021 9.183 40.999c0.008 0.403 0.023 0.804 0.048 1.204l1.382-0.889c-0.006-0.122 7.458-3.969 7.458-4.091 0-15.986 23.184-31.354 41.478-31.354 16.493 0 44.731 9.461 44.731 33.198-0.001 7.173-4.12 14.362-8.574 20.141-3.728 5.777 0.721 18.79 0.721 18.79l-14.634-7.79c-3.827 1.192-9.75 1.75-11.375 2.209-1.959 4.583-5.001 7.155-5.001 7.155 5.152-0.36 9.128-1.237 13.731-2.69l25.925 11.143C105.072 88.024 96.293 70.293 104.343 59.979zM35.457 36.076C16.445 35.702 0.795 47.391 0.504 62.185c-0.103 5.14 1.667 9.98 4.817 14.123H5.316c5.416 6.94-0.491 18.873-0.491 18.873l17.446-7.498c3.76 1.187 7.846 1.876 12.127 1.961 19.012 0.374 34.662-11.314 34.954-26.108C69.644 48.745 54.469 36.45 35.457 36.076z"></path></g></g></svg></g></svg></g></svg></g><defs><mask></mask></defs><mask><g id="SvgjsG2156"><svg viewBox="0 0 395.52 83.7447062380173" height="83.7447062380173" width="395.52"><g><svg viewBox="0 0 552.0657008729036 116.89062485762146" height="83.7447062380173" width="395.52"><g transform="matrix(1,0,0,1,156.54570087290358,16.15492716917923)"><svg viewBox="0 0 395.52000000000004 84.580770519263" height="84.580770519263" width="395.52000000000004"><g id="SvgjsG2155"><svg viewBox="0 0 395.52000000000004 84.580770519263" height="84.580770519263" width="395.52000000000004" id="SvgjsSvg2154"><g><svg viewBox="0 0 395.52000000000004 84.580770519263" height="84.580770519263" width="395.52000000000004"><g transform="matrix(1,0,0,1,0,0)"><svg width="395.52000000000004" viewBox="2.9 -37.7 179.09 38.300000000000004" height="84.580770519263" data-palette-color="url(#75527e6d-c5cc-4414-8f05-6e83ac0e1aea)"><g class="wordmark-text-0" data-fill-palette-color="primary" id="SvgjsG2153"><path d="M15.65 0.6Q11.75 0.6 8.88-1.1 6-2.8 4.45-5.88 2.9-8.95 2.9-12.95L2.9-12.95Q2.9-17 4.48-20.1 6.05-23.2 8.93-24.95 11.8-26.7 15.65-26.7L15.65-26.7Q20.6-26.7 23.6-24.45L23.6-24.45 23.6-19.5 23.4-19.5Q20.1-21.95 15.75-21.95L15.75-21.95Q12.25-21.95 10.4-19.5 8.55-17.05 8.55-12.9L8.55-12.9Q8.55-8.85 10.38-6.5 12.2-4.15 15.7-4.15L15.7-4.15Q20.05-4.15 23.7-7.05L23.7-7.05 23.9-7.05 23.9-2.05Q20.7 0.6 15.65 0.6L15.65 0.6ZM45.85-26.7Q49.65-26.7 51.8-24.4 53.95-22.1 53.95-18.15L53.95-18.15 53.95 0 48.55 0 48.55-16.15Q48.55-19.05 47.5-20.48 46.45-21.9 44.25-21.9L44.25-21.9Q42.3-21.9 40.72-21.13 39.15-20.35 37.45-18.7L37.45-18.7 37.45 0 32.05 0 32.05-37.7 37.45-37.7 37.45-23.1Q39.55-25 41.45-25.85 43.35-26.7 45.85-26.7L45.85-26.7ZM85.25 0L79.84 0 79.2-3.45Q75.45 0.6 70.2 0.6L70.2 0.6Q66.5 0.6 64.15-1.43 61.8-3.45 61.8-6.8L61.8-6.8Q61.8-11.15 65.2-13.38 68.59-15.6 74.34-15.6L74.34-15.6Q76.7-15.6 78.75-15.4L78.75-15.4 78.75-16.8Q78.75-19.3 77.37-20.65 76-22 73.5-22L73.5-22Q70.75-22 68.47-21.2 66.2-20.4 63.7-18.65L63.7-18.65 63.7-23.65Q66-25.3 68.47-26 70.95-26.7 74.05-26.7L74.05-26.7Q78.75-26.7 81.45-24.23 84.15-21.75 84.15-17.4L84.15-17.4 84.15-5.8 85.25 0ZM71.15-3.7Q73.3-3.7 75.12-4.63 76.95-5.55 78.75-7.35L78.75-7.35 78.75-11.6 74.05-11.6Q70.9-11.6 69.15-10.6 67.4-9.6 67.4-7.2L67.4-7.2Q67.4-5.55 68.4-4.63 69.4-3.7 71.15-3.7L71.15-3.7ZM99.14-35.4L99.14-26.1 105.79-26.1 105.79-21.8 99.14-21.8 99.14-7.9Q99.14-6.05 99.92-5 100.69-3.95 102.24-3.95L102.24-3.95Q103.84-3.95 105.84-4.9L105.84-4.9 105.84-0.3Q103.74 0.6 101.09 0.6L101.09 0.6Q97.54 0.6 95.64-1.55 93.74-3.7 93.74-7.65L93.74-7.65 93.74-21.8 89.29-21.8 89.29-26.1 93.74-26.1 93.74-33.1 99.14-35.4ZM142.09-26.7Q145.79-26.7 147.87-24.4 149.94-22.1 149.94-18.15L149.94-18.15 149.94 0 144.54 0 144.54-16.15Q144.54-19.05 143.56-20.48 142.59-21.9 140.44-21.9L140.44-21.9Q138.64-21.9 137.22-21.13 135.79-20.35 134.19-18.75L134.19-18.75 134.19-18.15 134.19 0 128.79 0 128.79-16.15Q128.79-19.05 127.82-20.48 126.84-21.9 124.69-21.9L124.69-21.9Q122.89-21.9 121.47-21.13 120.04-20.35 118.44-18.75L118.44-18.75 118.44 0 113.04 0 113.04-20.3 111.94-26.1 117.09-26.1 117.89-22.6Q120.04-24.8 121.92-25.75 123.79-26.7 126.34-26.7L126.34-26.7Q128.89-26.7 130.72-25.58 132.54-24.45 133.39-22.4L133.39-22.4Q135.64-24.7 137.56-25.7 139.49-26.7 142.09-26.7L142.09-26.7ZM181.99-13.05L181.99-11.35 163.64-11.35Q164.04-7.9 166.06-5.93 168.09-3.95 171.54-3.95L171.54-3.95Q173.79-3.95 176.14-4.83 178.49-5.7 180.69-7.35L180.69-7.35 180.89-7.35 180.89-2.5Q176.74 0.6 171.49 0.6L171.49 0.6Q167.44 0.6 164.44-1.1 161.44-2.8 159.84-5.93 158.24-9.05 158.24-13.15L158.24-13.15Q158.24-17.1 159.71-20.18 161.19-23.25 163.94-24.98 166.69-26.7 170.34-26.7L170.34-26.7Q173.94-26.7 176.56-24.98 179.19-23.25 180.59-20.15 181.99-17.05 181.99-13.05L181.99-13.05ZM170.34-22.3Q167.59-22.3 165.84-20.38 164.09-18.45 163.69-15.25L163.69-15.25 176.44-15.25Q176.04-18.55 174.51-20.43 172.99-22.3 170.34-22.3L170.34-22.3Z" fill="black"></path></g></svg></g></svg></g></svg></g></svg></g><g><svg viewBox="0 0 136.57821089179805 116.89062485762146" height="116.89062485762146" width="136.57821089179805"><g><svg xmlns="http://www.w3.org/2000/svg" xmlns:xlink="http://www.w3.org/1999/xlink" version="1.1" x="0" y="0" viewBox="0.499741564244382 0.18101534988859908 111.00058669431013 94.99998465011141" enable-background="new 0 0 111 95" xml:space="preserve" width="136.57821089179805" height="116.89062485762146" class="icon-icon-0" data-fill-palette-color="accent" id="SvgjsSvg2152"><g fill="black"><g fill="black"><path fill="black" d="M104.343 59.979h-0.009c4.685-6.157 7.313-13.35 7.16-20.989C111.063 17.007 87.805-0.362 59.553 0.194 31.301 0.749 8.751 19.021 9.183 40.999c0.008 0.403 0.023 0.804 0.048 1.204l1.382-0.889c-0.006-0.122 7.458-3.969 7.458-4.091 0-15.986 23.184-31.354 41.478-31.354 16.493 0 44.731 9.461 44.731 33.198-0.001 7.173-4.12 14.362-8.574 20.141-3.728 5.777 0.721 18.79 0.721 18.79l-14.634-7.79c-3.827 1.192-9.75 1.75-11.375 2.209-1.959 4.583-5.001 7.155-5.001 7.155 5.152-0.36 9.128-1.237 13.731-2.69l25.925 11.143C105.072 88.024 96.293 70.293 104.343 59.979zM35.457 36.076C16.445 35.702 0.795 47.391 0.504 62.185c-0.103 5.14 1.667 9.98 4.817 14.123H5.316c5.416 6.94-0.491 18.873-0.491 18.873l17.446-7.498c3.76 1.187 7.846 1.876 12.127 1.961 19.012 0.374 34.662-11.314 34.954-26.108C69.644 48.745 54.469 36.45 35.457 36.076z"></path></g></g></svg></g></svg></g></svg></g><defs><mask></mask></defs></svg><rect width="395.52" height="83.7447062380173" fill="black" stroke="none" visibility="hidden"></rect></g></mask></svg><rect width="395.52" height="83.7447062380173" fill="black" stroke="none" visibility="hidden"></rect></g></mask><linearGradient x1="0" x2="1" y1="0.578" y2="0.595" id="eaefd6b0-f0a8-4417-a523-3bd34cfadc93"><stop stop-color="#6ee2f5" offset="0"></stop><stop stop-color="#6454f0" offset="1"></stop></linearGradient><rect width="395.52" height="83.7447062380173" fill="url(#eaefd6b0-f0a8-4417-a523-3bd34cfadc93)" mask="url(#c7ec819f-fd90-433c-844d-30e49214fddf)" data-fill-palette-color="accent"></rect></svg><rect width="395.52" height="83.7447062380173" fill="none" stroke="none" visibility="hidden"></rect></g></svg></g></svg>